<?xml version="1.0" encoding="iso-8859-1"?>
<!-- Generator: Adobe Illustrator 19.0.0, SVG Export Plug-In . SVG Version: 6.00 Build 0)  -->
<svg version="1.1" id="Capa_1" xmlns="http://www.w3.org/2000/svg" xmlns:xlink="http://www.w3.org/1999/xlink" x="0px" y="0px"
	 viewBox="0 0 512.001 512.001" style="enable-background:new 0 0 512.001 512.001;" xml:space="preserve">
<circle style="fill:#505E93;" cx="256" cy="255.948" r="255.948"/>
<path style="fill:#FBB659;" d="M476.495,312.419h-216.8c-6.493,0-11.756-5.263-11.756-11.756V83.002
	c0-4.126-3.398-7.474-7.522-7.346c-123.163,3.842-222.63,101.7-229.029,224.201c-0.584,11.18-0.43,22.179,0.417,32.952
	c32.64,103.799,129.623,179.086,244.197,179.086c88.716,0,166.881-45.143,212.802-113.705c9.364-24.095,14.907-50.097,15.866-77.268
	C484.834,316.283,481.14,312.419,476.495,312.419z"/>
<path style="fill:#F7A15F;" d="M61.981,255.952c0-44.479,11.289-86.32,31.154-122.82c-47.305,40.883-78.268,100.163-81.746,166.726
	c-0.584,11.18-0.43,22.179,0.417,32.952c36.119,114.862,148.25,190.151,270.344,177.759
	C157.643,492.573,61.981,385.442,61.981,255.952z"/>
<path style="fill:#FBB659;" d="M280.008,9.865v212.172c0,5.4,6.529,8.104,10.347,4.286L440.016,76.663
	c4.158-4.158,4.048-10.967-0.294-14.933c-39.761-36.321-91.946-59.267-149.439-61.72C284.681-0.23,280.008,4.258,280.008,9.865z"/>
<path style="fill:#F7A15F;" d="M301.745,9.865c0-3.689,2.03-6.885,5.01-8.577c-5.437-0.611-10.929-1.043-16.472-1.279
	c-5.602-0.239-10.274,4.249-10.274,9.856v212.172c0,5.4,6.529,8.104,10.347,4.286l11.389-11.389L301.745,9.865L301.745,9.865z"/>
<path style="fill:#FBB659;" d="M422.935,136.555L272.331,287.161c-2.956,2.956-0.863,8.012,3.319,8.012h214.946
	c5.894,0,10.624-4.913,10.36-10.801c-2.536-56.525-24.883-107.892-60.263-147.328C436.007,131.82,427.897,131.593,422.935,136.555z"
	/>
<path style="fill:#F7A15F;" d="M442.865,152.311c2.149-2.149,4.888-3.32,7.683-3.538c-3.161-4.015-6.447-7.928-9.855-11.729
	c-4.686-5.224-12.795-5.451-17.757-0.489L272.331,287.161c-2.956,2.956-0.863,8.012,3.318,8.012h24.355L442.865,152.311z"/>
<path style="fill:#FDD36E;" d="M280.008,37.103v184.934c0,5.4,6.529,8.104,10.347,4.286L421.124,95.555
	C385.009,59.44,335.117,37.103,280.008,37.103z"/>
<path style="fill:#FBB659;" d="M301.745,38.285c-7.141-0.774-14.39-1.183-21.736-1.183v184.934c0,5.4,6.529,8.104,10.347,4.286
	l11.389-11.389V38.285z"/>
<path style="fill:#FDD36E;" d="M405.434,154.058L272.331,287.161c-2.956,2.957-0.862,8.012,3.319,8.012h188.237
	C463.886,240.063,441.549,190.172,405.434,154.058z"/>
<path style="fill:#FBB659;" d="M422.143,173.035c-5.172-6.673-10.749-13.016-16.709-18.977L272.331,287.161
	c-2.964,2.962-0.855,8.012,3.318,8.012h24.355L422.143,173.035z"/>
<path style="fill:#FDD36E;" d="M447.507,312.419h-0.001H259.696c-6.493,0-11.756-5.263-11.756-11.756V112.851
	c-110.219,0-199.567,89.35-199.567,199.567c0,88.768,57.962,163.986,138.099,189.905c21.566,6.075,44.285,9.393,67.756,9.553
	C361.535,508.556,447.507,420.533,447.507,312.419z"/>
<path style="fill:#FBB659;" d="M61.981,255.952c0-5.917,0.206-11.784,0.599-17.6c-9.16,22.902-14.207,47.894-14.207,74.068
	c0,121.676,108.101,215.227,228.945,197.395C155.178,489.778,61.981,383.761,61.981,255.952z"/>
<circle style="fill:#E8846C;" cx="118.328" cy="255.948" r="23.328"/>
<path style="fill:#DD745F;" d="M118.326,255.948c-4.317-7.476-4.018-16.347,0.001-23.326c-3.965-0.004-7.984,0.997-11.666,3.122
	c-11.158,6.442-14.981,20.71-8.539,31.868c6.442,11.158,20.71,14.981,31.868,8.538c3.681-2.126,6.558-5.106,8.537-8.541
	C130.473,267.602,122.642,263.425,118.326,255.948z"/>
<circle style="fill:#E8846C;" cx="198.472" cy="190.741" r="23.328"/>
<g>
	<path style="fill:#FA6487;" d="M346.773,413.92c-2.874,2.917-7.568,2.952-10.486,0.079l-29.338-28.902
		c-2.917-2.873-2.952-7.568-0.079-10.486c2.874-2.917,7.568-2.952,10.486-0.079l29.338,28.902
		C349.612,406.308,349.647,411.003,346.773,413.92z"/>
	<path style="fill:#FA6487;" d="M337.084,134.083c-2.874,2.917-7.568,2.952-10.486,0.079L297.26,105.26
		c-2.917-2.873-2.952-7.568-0.079-10.486c2.874-2.917,7.568-2.952,10.486-0.079l29.338,28.902
		C339.922,126.471,339.957,131.165,337.084,134.083z"/>
	<path style="fill:#FA6487;" d="M249.793,377.514c0.607,4.05-2.185,7.824-6.235,8.431l-40.729,6.1
		c-4.05,0.607-7.824-2.185-8.431-6.235c-0.607-4.05,2.186-7.824,6.235-8.431l40.729-6.1
		C245.411,370.673,249.186,373.464,249.793,377.514z"/>
	<path style="fill:#FA6487;" d="M428.861,202.208c0.607,4.05-2.185,7.824-6.235,8.431l-40.729,6.1
		c-4.05,0.607-7.824-2.185-8.431-6.235c-0.607-4.05,2.185-7.824,6.235-8.431l40.729-6.1
		C424.48,195.366,428.254,198.158,428.861,202.208z"/>
	<path style="fill:#FA6487;" d="M130.806,343.797c-1.076,3.999-5.19,6.369-9.189,5.293l-40.218-10.819
		c-3.999-1.076-6.369-5.189-5.293-9.189c1.076-3.999,5.19-6.369,9.189-5.293l40.218,10.819
		C129.512,335.685,131.882,339.798,130.806,343.797z"/>
	<path style="fill:#FA6487;" d="M168.11,271.668c-2.299-3.445-1.37-8.1,2.076-10.399l34.643-23.116c3.444-2.299,8.1-1.37,10.4,2.076
		c2.299,3.445,1.369,8.101-2.076,10.4l-34.643,23.116C175.065,276.042,170.41,275.113,168.11,271.668z"/>
</g>
<g>
	<circle style="fill:#28B49B;" cx="319.277" cy="75.655" r="12.53"/>
	<circle style="fill:#28B49B;" cx="129.126" cy="385.042" r="12.53"/>
	<circle style="fill:#28B49B;" cx="216.488" cy="295.17" r="12.53"/>
	<circle style="fill:#28B49B;" cx="338.204" cy="442.5" r="12.53"/>
	<circle style="fill:#28B49B;" cx="141.654" cy="214.077" r="12.53"/>
	<circle style="fill:#28B49B;" cx="218.828" cy="469.945" r="12.53"/>
</g>
<circle style="fill:#E8846C;" cx="170.978" cy="325.854" r="23.328"/>
<path style="fill:#DD745F;" d="M170.982,325.857c-4.317-7.476-4.018-16.347,0.001-23.325c-3.965-0.004-7.984,0.997-11.666,3.122
	c-11.158,6.442-14.981,20.71-8.539,31.868c6.442,11.158,20.71,14.981,31.868,8.538c3.681-2.126,6.558-5.106,8.537-8.541
	C183.129,337.51,175.299,333.333,170.982,325.857z"/>
<circle style="fill:#E8846C;" cx="179.926" cy="419.175" r="23.328"/>
<path style="fill:#DD745F;" d="M179.928,419.171c-4.317-7.476-4.018-16.347,0.001-23.326c-3.965-0.004-7.984,0.997-11.666,3.122
	c-11.158,6.442-14.981,20.71-8.539,31.867c6.442,11.158,20.71,14.981,31.868,8.538c3.681-2.126,6.558-5.106,8.537-8.541
	C192.075,430.825,184.245,426.647,179.928,419.171z"/>
<circle style="fill:#E8846C;" cx="280.005" cy="430.423" r="23.328"/>
<path style="fill:#DD745F;" d="M280.008,430.425c-4.317-7.476-4.018-16.347,0.001-23.326c-3.965-0.004-7.984,0.997-11.666,3.122
	c-11.158,6.442-14.981,20.71-8.539,31.868c6.442,11.158,20.71,14.981,31.868,8.538c3.681-2.126,6.558-5.106,8.537-8.541
	C292.156,442.077,284.326,437.901,280.008,430.425z"/>
<circle style="fill:#E8846C;" cx="365.888" cy="372.514" r="23.328"/>
<path style="fill:#DD745F;" d="M365.89,372.514c-4.317-7.477-4.018-16.347,0.001-23.326c-3.965-0.004-7.984,0.997-11.666,3.122
	c-11.158,6.442-14.981,20.71-8.539,31.868c6.442,11.158,20.71,14.981,31.868,8.538c3.681-2.126,6.558-5.106,8.537-8.541
	C378.038,384.167,370.207,379.991,365.89,372.514z"/>
<circle style="fill:#E8846C;" cx="424.176" cy="249.859" r="23.328"/>
<path style="fill:#DD745F;" d="M424.179,249.86c-4.317-7.476-4.018-16.347,0.001-23.325c-3.965-0.004-7.984,0.997-11.666,3.122
	c-11.158,6.442-14.981,20.71-8.539,31.868c6.442,11.158,20.71,14.981,31.868,8.538c3.681-2.126,6.558-5.106,8.537-8.541
	C436.327,261.513,428.495,257.337,424.179,249.86z"/>
<circle style="fill:#E8846C;" cx="342.603" cy="249.859" r="23.328"/>
<path style="fill:#DD745F;" d="M342.604,249.863c-4.317-7.476-4.018-16.347,0.001-23.325c-3.965-0.004-7.984,0.997-11.666,3.122
	c-11.158,6.442-14.981,20.71-8.539,31.868c6.442,11.158,20.71,14.981,31.868,8.538c3.681-2.126,6.558-5.106,8.537-8.541
	C354.751,261.517,346.92,257.34,342.604,249.863z"/>
<circle style="fill:#E8846C;" cx="361.539" cy="98.98" r="23.328"/>
<path style="fill:#DD745F;" d="M361.534,98.982c-4.317-7.476-4.018-16.347,0.001-23.325c-3.965-0.004-7.984,0.997-11.666,3.122
	c-11.158,6.442-14.981,20.71-8.539,31.868c6.442,11.158,20.71,14.981,31.868,8.538c3.681-2.126,6.558-5.106,8.537-8.541
	C373.681,110.635,365.85,106.459,361.534,98.982z"/>
<path style="fill:#E8846C;" d="M345.28,160.394c-6.442-11.158-20.71-14.981-31.868-8.538c-11.158,6.442-14.981,20.71-8.538,31.868
	c3.685,6.383,9.931,10.359,16.69,11.394l26.575-26.575C347.714,165.748,346.778,162.987,345.28,160.394z"/>
<path style="fill:#DD745F;" d="M325.076,172.057c-4.316-7.476-4.018-16.347,0.001-23.326c-1.466-0.001-2.938,0.137-4.399,0.416
	c-0.051,0.01-0.101,0.02-0.152,0.03c-0.426,0.084-0.85,0.182-1.273,0.29c-0.058,0.015-0.117,0.029-0.175,0.044
	c-0.913,0.243-1.818,0.546-2.71,0.906c-0.117,0.047-0.233,0.098-0.35,0.147c-0.326,0.138-0.651,0.284-0.973,0.438
	c-0.124,0.059-0.248,0.117-0.371,0.178c-0.419,0.209-0.836,0.428-1.247,0.665c-0.005,0.003-0.01,0.005-0.015,0.008
	c-11.158,6.442-14.981,20.71-8.538,31.868c0.219,0.379,0.448,0.748,0.684,1.109c0.067,0.103,0.139,0.202,0.207,0.303
	c0.172,0.254,0.346,0.507,0.526,0.752c0.088,0.12,0.179,0.236,0.268,0.353c0.17,0.222,0.342,0.443,0.519,0.658
	c0.097,0.117,0.195,0.233,0.293,0.348c0.18,0.21,0.363,0.417,0.55,0.62c0.098,0.106,0.196,0.213,0.295,0.317
	c0.202,0.212,0.409,0.418,0.618,0.621c0.088,0.086,0.175,0.173,0.264,0.257c0.253,0.238,0.512,0.469,0.774,0.694
	c0.048,0.042,0.096,0.086,0.145,0.127c0.653,0.551,1.332,1.063,2.035,1.535c0.022,0.015,0.045,0.029,0.068,0.044
	c0.323,0.215,0.651,0.422,0.984,0.621c0.056,0.033,0.112,0.065,0.169,0.098c0.306,0.179,0.615,0.351,0.928,0.516
	c0.062,0.033,0.125,0.065,0.186,0.097c0.318,0.163,0.64,0.32,0.964,0.468c0.051,0.023,0.102,0.047,0.154,0.07
	c0.359,0.161,0.721,0.314,1.088,0.457c0.014,0.005,0.028,0.011,0.042,0.017c1.59,0.616,3.243,1.057,4.928,1.315l13.672-13.672
	C331.118,179.485,327.53,176.305,325.076,172.057z"/>
<g>
</g>
<g>
</g>
<g>
</g>
<g>
</g>
<g>
</g>
<g>
</g>
<g>
</g>
<g>
</g>
<g>
</g>
<g>
</g>
<g>
</g>
<g>
</g>
<g>
</g>
<g>
</g>
<g>
</g>
</svg>
