<?xml version="1.0" encoding="iso-8859-1"?>
<!-- Generator: Adobe Illustrator 19.0.0, SVG Export Plug-In . SVG Version: 6.00 Build 0)  -->
<svg version="1.1" id="Capa_1" xmlns="http://www.w3.org/2000/svg" xmlns:xlink="http://www.w3.org/1999/xlink" x="0px" y="0px"
	 viewBox="0 0 512 512" style="enable-background:new 0 0 512 512;" xml:space="preserve">
<circle style="fill:#FCD748;" cx="256" cy="256" r="256"/>
<path style="fill:#FABF40;" d="M512,256c0-4.399-0.112-8.773-0.331-13.117L406.786,138l-25.874,167.413L276,200.5l-7.4,8.1
	l-44.1-44.1L102.557,352.964L261.524,511.93C400.357,508.99,512,395.538,512,256z"/>
<rect x="92.5" y="164.5" style="fill:#FFFFFF;" width="132" height="49.5"/>
<rect x="92.5" y="200.5" style="fill:#EC5353;" width="183.5" height="49.5"/>
<rect x="245.57" y="200.5" style="fill:#D13135;" width="30.429" height="49.5"/>
<rect x="351" y="138" style="fill:#2789E1;" width="55.786" height="89.5"/>
<rect x="351" y="169.25" style="fill:#D13135;" width="55.786" height="89.5"/>
<path style="fill:#595959;" d="M368,375.5H155.161c-40.13,0-72.661-32.531-72.661-72.661V238.5h369L368,375.5z"/>
<polygon style="fill:#303030;" points="451.5,238.5 245.571,238.5 245.571,375.5 368,375.5 "/>
<polygon style="fill:#F0F0F0;" points="82.5,283.667 423.971,283.667 439.158,258.75 82.5,258.75 "/>
<polygon style="fill:#E0E0E0;" points="439.158,258.75 245.571,258.75 245.571,283.667 423.971,283.667 "/>
<g>
	<rect x="106.33" y="173.67" style="fill:#F0F0F0;" width="24.667" height="18.667"/>
	<rect x="188.25" y="173.67" style="fill:#F0F0F0;" width="24.667" height="18.667"/>
	<rect x="147.29" y="173.67" style="fill:#F0F0F0;" width="24.667" height="18.667"/>
</g>
<g>
</g>
<g>
</g>
<g>
</g>
<g>
</g>
<g>
</g>
<g>
</g>
<g>
</g>
<g>
</g>
<g>
</g>
<g>
</g>
<g>
</g>
<g>
</g>
<g>
</g>
<g>
</g>
<g>
</g>
</svg>
