<?xml version="1.0" encoding="iso-8859-1"?>
<!-- Generator: Adobe Illustrator 19.0.0, SVG Export Plug-In . SVG Version: 6.00 Build 0)  -->
<svg version="1.1" id="Capa_1" xmlns="http://www.w3.org/2000/svg" xmlns:xlink="http://www.w3.org/1999/xlink" x="0px" y="0px"
	 viewBox="0 0 512 512" style="enable-background:new 0 0 512 512;" xml:space="preserve">
<path style="fill:#3693BD;" d="M512,256c0,141.385-114.615,256-256,256S0,397.385,0,256S114.615,0,256,0S512,114.615,512,256z"/>
<path style="fill:#0582B0;" d="M155,80H70.108c10.385-10.964,21.73-21.006,33.9-30H155c8.284,0,15,6.716,15,15S163.284,80,155,80z
	 M254.576,200H185c8.525,0,15.389-7.111,14.983-15.725c-0.38-8.068-7.33-14.275-15.406-14.275H35.424
	c-8.077,0-15.027,6.207-15.406,14.275C19.611,192.889,26.475,200,35,200h40c8.284,0,15,6.716,15,15l0,0c0,8.284,6.716,15,15,15h150
	c8.525,0,15.389-7.111,14.983-15.725C269.603,206.207,262.653,200,254.576,200z M450,145c0-8.284-6.716-15-15-15h5
	c-5.523,0-10-4.477-10-10s4.477-10,10-10h26.291c-7.381-10.611-15.537-20.642-24.399-30H385c-8.284,0-15,6.716-15,15s6.716,15,15,15
	h25c5.523,0,10,4.477,10,10s-4.477,10-10,10H305c-8.284,0-15,6.716-15,15s6.716,15,15,15h130C443.284,160,450,153.284,450,145z
	 M503.393,190H445c-8.284,0-15,6.716-15,15s6.716,15,15,15h64.468C508.032,209.794,505.997,199.782,503.393,190z"/>
<path style="fill:#FFE899;" d="M101.97,120.492l10.493,5.739l-10.493,5.739l-5.739,10.492l-5.739-10.492L80,126.231l10.492-5.739
	L96.231,110L101.97,120.492z M339.508,40.492L333.769,30l-5.739,10.492l-10.492,5.739l10.492,5.739l5.739,10.492l5.739-10.492
	L350,46.231L339.508,40.492z"/>
<path style="fill:#FF8835;" d="M489.808,360.389C449.855,449.737,360.203,512,256,512S62.145,449.737,22.192,360.389
	l143.557-242.496c18.88-31.892,53.189-51.452,90.251-51.452l0,0c37.061,0,71.371,19.56,90.251,51.452L489.808,360.389z"/>
<path style="fill:#FF7118;" d="M55.241,414.846c-13.155-16.605-24.295-34.88-33.049-54.456l143.557-242.496
	c18.88-31.892,53.189-51.452,90.251-51.452l0,0c6.819,0,13.543,0.667,20.096,1.947c-29.066,5.674-54.748,23.481-70.155,49.505
	L62.385,360.389c7.768,17.373,17.422,33.716,28.689,48.782C78.949,410.88,66.999,412.773,55.241,414.846z"/>
<path style="fill:#C5D3DD;" d="M42.877,355.707c-3.952-4.198-3.521-10.86,0.919-14.54C73.32,316.696,174.351,236.301,227.37,236.301
	l28.13,6.616c0.172,0,0.828,0,1,0l28.13-6.616c53.019,0,154.05,80.395,183.575,104.866c4.439,3.68,4.871,10.341,0.919,14.54
	c-17.169,18.238-39.002,45.272-62.895,71.752C358.442,421.298,308.058,418,256,418s-102.442,3.298-150.229,9.458
	C81.879,400.979,60.046,373.945,42.877,355.707z"/>
<path style="fill:#465A61;" d="M406.229,427.458C358.442,421.298,308.058,418,256,418s-102.442,3.298-150.229,9.458
	c-2.949-3.268-5.866-6.545-8.748-9.813l88.342-149.227c6.764-11.425,16.061-20.823,26.935-27.659
	c4.497-2.827,9.679-4.451,14.991-4.459c0.026,0,0.052,0,0.078,0h28.13c0.172,0,0.33,0.007,0.5,0.008
	c0.17-0.001,0.328-0.008,0.5-0.008h28.13c0.026,0,0.053,0,0.079,0c5.312,0.008,10.494,1.632,14.991,4.459
	c10.874,6.836,20.171,16.233,26.934,27.659l88.342,149.227C412.095,420.913,409.178,424.19,406.229,427.458z"/>
<path style="fill:#D6CF54;" d="M459.913,410.771C413.156,472.279,339.222,512,256,512S98.844,472.279,52.087,410.771
	c14.233-3.041,28.812-5.757,43.673-8.164L82.865,372.63c-0.802-1.866,1.364-3.601,3.01-2.411L110,387.676l1.046-57.452
	c0.041-2.248,3.186-2.729,3.897-0.596l22.385,67.179C175.43,392.357,215.159,390,256,390
	C328.427,390,397.364,397.407,459.913,410.771z"/>
<path style="fill:#A94B30;" d="M170,415L170,415c0,6.904-5.596,12.5-12.5,12.5h-25c-6.904,0-12.5-5.596-12.5-12.5l0,0
	c0-4.554,1.218-8.823,3.345-12.5c4.323-7.472,12.402-12.5,21.655-12.5l0,0C158.807,390,170,401.193,170,415z M100,430
	c-11.046,0-20,8.954-20,20l0,0c0,5.523,4.477,10,10,10h20c5.523,0,10-4.477,10-10l0,0C120,438.954,111.046,430,100,430z M410,390
	c-11.046,0-20,8.954-20,20l0,0c0,5.523,4.477,10,10,10h20c5.523,0,10-4.477,10-10l0,0C430,398.954,421.046,390,410,390z"/>
<path style="fill:#C5573A;" d="M166.642,402.494C168.777,406.169,170,410.44,170,415l0,0c0,6.904-5.596,12.5-12.5,12.5H145
	c-6.904,0-12.5-5.596-12.5-12.5l0,0c0-11.645,7.973-21.401,18.75-24.18C157.807,392.51,163.325,396.784,166.642,402.494z
	 M105,430.656c-8.621,2.223-15,10.029-15,19.344l0,0c0,5.523,4.477,10,10,10h10c5.523,0,10-4.477,10-10l0,0
	C120,440.684,113.621,432.879,105,430.656z M415,390.656c-8.621,2.223-15,10.029-15,19.344l0,0c0,5.523,4.477,10,10,10h10
	c5.523,0,10-4.477,10-10l0,0C430,400.684,423.621,392.879,415,390.656z"/>
<path style="fill:#8C3D27;" d="M48.536,341.464c1.953,1.953,1.953,5.118,0,7.071L26.851,370.22
	c-1.579-3.161-3.103-6.355-4.553-9.589l19.166-19.166C43.417,339.512,46.583,339.512,48.536,341.464z M468.536,341.464
	c-1.953-1.953-5.119-1.953-7.071,0c-1.953,1.953-1.953,5.118,0,7.071l23.021,23.021c1.594-3.146,3.128-6.328,4.595-9.547
	L468.536,341.464z"/>
<g>
</g>
<g>
</g>
<g>
</g>
<g>
</g>
<g>
</g>
<g>
</g>
<g>
</g>
<g>
</g>
<g>
</g>
<g>
</g>
<g>
</g>
<g>
</g>
<g>
</g>
<g>
</g>
<g>
</g>
</svg>
